<?xml version="1.0" encoding="UTF-8"?>
<svg id="Layer_1" data-name="Layer 1" xmlns="http://www.w3.org/2000/svg" viewBox="0 0 468.19 164.8">
  <defs>
    <style>
      .cls-1 {
        fill: #fff;
      }
    </style>
  </defs>
  <g>
    <path d="M53.6,139.6c-.3,0-29.6-.13-29.6-11.6,0-9.38,10.03-35.27,19.74-60.31,7.7-19.87,15.66-40.41,15.66-45.89,0-.73-.86-1-1.4-1-9.04,0-26.4,12.67-26.4,30,0,8.32,2.29,12.01,3.65,14.21.72,1.17,1.35,2.17,1.35,3.39,0,1.99-1.61,4-5.2,4-10.66,0-31.4-10.24-31.4-29C0,18.56,34.32,0,65,0c13.57,0,28,8.13,28,23.2,0,8.4-4.3,19.94-8.96,31.53,12.83-5.88,30.16-18.82,30.16-37.93,0-2.44-.23-3.99-.41-5.13-.11-.72-.19-1.29-.19-1.87,0-2.71,1.89-4.6,4.6-4.6,5.31,0,12.32,2.62,17.86,6.69,6.93,5.08,10.74,11.72,10.74,18.71,0,15.99-38.44,36.44-55.03,42.14,8.24,5.34,12.26,15.17,15.87,23.99,3.75,9.16,6.98,17.07,13.76,17.07,1.77,0,3.31-.54,4.68-1.02,1.15-.4,2.24-.78,3.32-.78,2.06,0,3.8,1.65,3.8,3.6,0,5.37-12.12,22.2-29.2,22.2-21.64,0-24.22-19-26.29-34.26-1.06-7.85-2.08-15.31-5.51-18.13-6.76,16.48-12.8,33.48-12.8,47.39,0,1.86,0,6.8-5.8,6.8Z"/>
    <path d="M205.8,164.8c-18.36,0-32.2-12.55-32.2-29.2,0-15.27,7.42-29.15,12.83-39.29,2.88-5.39,5.37-10.05,5.37-12.5,0-1.01-.42-1.2-1.2-1.2-1.98,0-8.03,3.66-13.72,12.48-7.15,11.24-14.88,28.17-14.88,35.92,0,1.86,0,6.8-5.8,6.8-11.26,0-24.4-3.04-24.4-11.6,0-7.41,4.32-17.84,8.89-28.9,4.58-11.06,9.31-22.49,9.31-30.3,0-2.61,2-5.4,7.6-5.4,14.34,0,18.7,8.79,20.31,13.33,4.63-3.9,16.48-13.33,31.29-13.33,10.77,0,17.2,5.68,17.2,15.2,0,6.65-3.55,14.03-7.31,21.83-4.26,8.84-9.09,18.86-9.09,28.97s6.36,15.8,16.6,15.8c3.75,0,6.09-.86,7.8-1.5,1.06-.39,1.91-.7,2.8-.7,2.58,0,4.6,1.93,4.6,4.4,0,5.7-13.97,19.2-36,19.2Z"/>
    <path d="M252.2,137.6c-18.5,0-30-9.2-30-24,0-16.99,13.14-27.93,18.65-31.76-.05-.6-.05-1.14-.05-1.64,0-10.12,16.92-19,36.2-19,20.36,0,33,9.73,33,25.4,0,24.12-23.74,51-57.8,51ZM254.77,99.73c-1.31,3.9-1.98,7.67-1.98,11.27,0,8.2,3.2,8.2,4.4,8.2,9.1,0,21.2-24.97,21.2-36.4,0-4.38-1.37-4.6-3.6-4.6-4.41,0-9.8,5.17-9.8,11.2,0,2.13.54,3.61,1.02,4.91.4,1.09.78,2.12.78,3.29,0,2.18-1.97,4.6-4.8,4.6-2.16,0-4.67-.86-7.22-2.47Z"/>
    <path d="M359.6,137.8c-8.29,0-12.43-10.47-15.46-18.11-.77-1.94-1.76-4.45-2.5-5.71-1.85,2.98-5.09,12.79-5.44,17.76-.19,2.82-1.02,6.06-5.79,6.06-11.26,0-24.4-3.04-24.4-11.6,0-7.42,9.13-28.96,18.79-51.77,9.38-22.13,20.01-47.22,20.01-55.03,0-2.61,2-5.4,7.6-5.4,9.08,0,21.6,9.62,21.6,16.6,0,5.81-8,24.41-16.91,44.6-2.02,4.57-4.08,9.25-5.09,11.75,6.72-1.75,16.26-12.42,18.46-21.24l.04-.15c.85-2.56,2.95-3.97,5.9-3.97,16.15,0,24,2.88,24,8.8,0,12.35-26.6,28.48-41.94,32.45,3.12,2.95,9.44,7.55,18.54,7.55,2.33,0,3.54-.37,4.6-.69.83-.25,1.69-.51,2.8-.51,3.05,0,4.8,1.68,4.8,4.6,0,8.39-15.21,24-29.6,24Z"/>
    <path d="M411.59,137.8c-11.26,0-24.4-3.04-24.4-11.6,0-7.41,4.37-17.85,8.99-28.9,4.62-11.06,9.41-22.49,9.41-30.3,0-2.61,2-5.4,7.6-5.4,13.72,0,17.82,7.14,19.3,11.31,3.92-3.73,12.58-11.31,23.5-11.31,7.53,0,12.2,4.67,12.2,12.2s-5.37,14.65-7.68,17.47c-3.62,4.41-8.97,9.13-13.12,9.13-2.78,0-4.46-1.26-5.13-3.86-.26-.86-.44-1.87-.63-2.94-.71-4.07-1.35-6-3.05-6-1.15,0-4.21,1.43-7.49,6.84-6.49,10.43-13.71,30.69-13.71,36.56,0,1.86,0,6.8-5.8,6.8Z"/>
  </g>
  <g>
    <path class="cls-1" d="M58,18.8c-10,0-28.4,13.4-28.4,32,0,12.6,5,15.4,5,17.6,0,1.2-1.2,2-3.2,2-9.6,0-29.4-9.4-29.4-27C2,19,36.8,2,65,2c13.4,0,26,8,26,21.2,0,8.8-5,21.4-10.6,35.2,12-4.4,35.8-18.2,35.8-41.6,0-4-.6-5.8-.6-7,0-1.6,1-2.6,2.6-2.6,9,0,26.6,9,26.6,23.4,0,16-46.8,39.8-58.6,41.6,21.2,7.6,18.6,43.6,35.2,43.6,3.6,0,6.2-1.8,8-1.8,1,0,1.8.8,1.8,1.6,0,4.2-11.4,20.2-27.2,20.2-33,0-17.8-48.2-32.8-53.2-8.2,19.8-13.8,36.4-13.8,50.2,0,3-.6,4.8-3.8,4.8-9.4,0-27.6-2.4-27.6-9.6,0-16.8,35.4-93.6,35.4-106.2,0-1.8-1.6-3-3.4-3Z"/>
    <path class="cls-1" d="M190.6,80.6c-3,0-9.6,4.4-15.4,13.4-7,11-15.2,28.4-15.2,37,0,3-.6,4.8-3.8,4.8-9.4,0-22.4-2.4-22.4-9.6,0-14.4,18.2-43.2,18.2-59.2,0-2,1.8-3.4,5.6-3.4,17.8,0,18.6,14.6,19.4,14.6s14.2-14.6,32.2-14.6c10,0,15.2,5.2,15.2,13.2,0,13.6-16.4,31.4-16.4,50.8,0,10,6.4,17.8,18.6,17.8,6.2,0,9-2.2,10.6-2.2,1.4,0,2.6,1,2.6,2.4,0,4-12.6,17.2-34,17.2-16.8,0-30.2-11-30.2-27.2,0-23.4,18.2-43.8,18.2-51.8,0-1.8-1-3.2-3.2-3.2Z"/>
    <path class="cls-1" d="M277,63.2c20,0,31,9.4,31,23.4,0,24.2-24,49-55.8,49-16.2,0-28-7.6-28-22,0-17.2,14.2-27.8,18.8-30.8-.2-1-.2-1.8-.2-2.6,0-8.8,16.4-17,34.2-17ZM257.2,121.2c10.8,0,23.2-26.2,23.2-38.4,0-5-1.8-6.6-5.6-6.6-5.4,0-11.8,6-11.8,13.2,0,4.2,1.8,6.2,1.8,8.2,0,1.2-1.2,2.6-2.8,2.6-2.4,0-5.4-1.4-8.2-3.6-1.6,4-3,9-3,14.4,0,7.2,2.4,10.2,6.4,10.2Z"/>
    <path class="cls-1" d="M349.4,88.4c0,.6.4.8.8.8,7.8,0,19.6-12.6,22.2-23,.6-1.8,2-2.6,4-2.6,7.4,0,22,.6,22,6.8,0,11.8-29.4,29.2-43.8,31.2,0,0,7.8,10.8,22.4,10.8,4.4,0,5.4-1.2,7.4-1.2s2.8.8,2.8,2.6c0,6.6-13.6,22-27.6,22-11,0-14.2-24.4-18-24.4-2.4,0-7,14.6-7.4,20.2-.2,3-1,4.2-3.8,4.2-9.4,0-22.4-2.4-22.4-9.6,0-14.4,38.8-90.8,38.8-106.8,0-2,1.8-3.4,5.6-3.4,8.4,0,19.6,9,19.6,14.6,0,8.8-22.6,55.6-22.6,57.8Z"/>
    <path class="cls-1" d="M455.99,63.6c6.2,0,10.2,3.6,10.2,10.2,0,10.4-13,24.6-18.8,24.6-2,0-2.8-.8-3.2-2.4-1-3.2-.8-10.4-5.6-10.4-2.2,0-5.8,2.2-9.2,7.8-6.6,10.6-14,31.2-14,37.6,0,3-.6,4.8-3.8,4.8-9.4,0-22.4-2.4-22.4-9.6,0-14.4,18.4-43.2,18.4-59.2,0-2,1.8-3.4,5.6-3.4,17.8,0,17.6,12.8,18.4,12.8s10.8-12.8,24.4-12.8Z"/>
  </g>
</svg>